<?xml version="1.0" standalone="no"?>
<!DOCTYPE svg PUBLIC "-//W3C//DTD SVG 20010904//EN"
 "http://www.w3.org/TR/2001/REC-SVG-20010904/DTD/svg10.dtd">
<svg version="1.0" xmlns="http://www.w3.org/2000/svg"
 width="260.000000pt" height="260.000000pt" viewBox="0 0 260.000000 260.000000"
 preserveAspectRatio="xMidYMid meet">
<metadata>
Created by potrace 1.14, written by Peter Selinger 2001-2017
</metadata>
<g transform="translate(0.000000,260.000000) scale(0.100000,-0.100000)"
fill="#000000" stroke="none">
<path d="M980 2571 c-5 -11 -10 -73 -10 -138 0 -111 -1 -119 -22 -132 -22 -14
-22 -14 -2 -22 17 -6 21 -15 19 -43 -3 -39 17 -53 55 -41 12 4 20 2 20 -5 0
-7 7 -10 15 -6 9 3 15 0 15 -10 0 -10 6 -14 14 -11 8 3 17 1 20 -6 2 -7 5 -4
5 6 1 9 6 17 12 17 6 0 8 -7 5 -16 -3 -8 -2 -12 4 -9 14 9 12 -9 -2 -23 -9 -9
-7 -12 10 -12 14 0 20 -5 16 -14 -7 -17 -50 -37 -67 -30 -7 2 -24 -7 -37 -22
-24 -26 -24 -26 -3 -20 18 6 20 4 16 -14 -6 -23 12 -28 21 -4 8 21 27 8 20
-14 -4 -10 5 -6 21 12 19 20 29 26 37 18 6 -6 17 -7 27 -2 9 5 25 11 36 15 16
5 17 8 5 15 -10 6 -11 10 -3 10 7 0 10 7 7 15 -10 25 13 17 50 -19 44 -41 46
-59 7 -53 -15 3 -34 1 -42 -4 -8 -4 -19 -3 -26 3 -10 8 -13 5 -13 -15 0 -14
-4 -27 -8 -29 -5 -1 -12 -15 -16 -30 -5 -21 -3 -26 7 -22 14 5 56 -61 45 -71
-3 -4 -17 0 -30 9 -21 14 -27 14 -44 1 -18 -14 -18 -14 4 -15 25 0 30 -15 7
-24 -8 -3 -15 -12 -15 -21 0 -13 -24 -15 -168 -15 l-169 0 2 -45 c2 -28 -2
-45 -9 -46 -6 -1 -38 -2 -71 -3 l-60 -1 0 -388 c0 -264 4 -412 12 -462 40
-238 229 -431 466 -476 51 -9 179 -12 227 -5 237 36 426 208 485 441 16 61 18
121 20 470 1 220 0 405 -2 411 -2 6 -29 10 -64 9 -33 0 -63 4 -67 10 -3 5 -6
27 -5 47 l1 38 -88 0 c-79 0 -88 2 -93 20 -3 11 -13 23 -24 27 -27 10 -40 33
-35 59 4 21 1 24 -27 24 -19 0 -31 5 -31 13 0 18 61 10 77 -11 11 -13 13 -13
19 2 4 9 4 20 1 23 -4 3 0 14 8 25 11 17 11 27 0 67 -26 89 -24 151 6 151 6 0
9 -7 5 -15 -3 -8 -1 -15 5 -15 5 0 12 7 15 15 4 8 11 15 16 15 6 0 8 -7 4 -15
-3 -8 -2 -15 3 -15 13 0 19 48 8 59 -5 5 -12 29 -14 53 -2 24 -12 55 -23 69
-10 14 -20 32 -21 40 -3 22 12 49 28 49 8 0 11 5 8 10 -10 16 -33 12 -54 -9
-13 -13 -21 -16 -24 -8 -3 7 -8 4 -13 -8 -4 -11 -14 -24 -21 -30 -19 -15 -4
-54 23 -61 27 -7 30 -14 12 -32 -10 -10 -10 -17 0 -32 16 -26 7 -25 -20 0 -27
25 -35 18 -14 -12 20 -28 20 -39 1 -32 -11 4 -13 2 -9 -9 3 -8 -2 -30 -11 -47
-16 -31 -16 -34 5 -62 20 -27 21 -30 5 -42 -21 -15 -16 -50 8 -54 12 -2 15 1
11 12 -4 10 -1 16 9 16 18 0 26 -18 19 -42 -16 -61 -141 60 -170 164 -11 41 3
90 25 86 9 -2 18 3 21 11 3 9 0 11 -8 6 -7 -4 -4 4 5 19 17 25 17 26 -4 26
-24 0 -25 3 -12 47 7 24 6 35 -3 40 -19 11 -36 48 -36 75 0 23 -3 24 -62 22
-85 -2 -121 -17 -114 -47 3 -12 3 -16 0 -9 -9 20 -46 15 -42 -5 2 -12 13 -18
31 -18 20 1 27 -4 28 -20 0 -11 2 -30 5 -42 3 -17 0 -20 -16 -16 -11 3 -20 0
-20 -6 0 -6 6 -11 13 -11 6 -1 -4 -8 -23 -17 -48 -21 -66 -19 -98 14 -26 27
-27 31 -25 138 1 132 -18 189 -47 136z m591 -336 c5 4 9 1 9 -4 0 -6 -7 -11
-15 -11 -10 0 -15 9 -14 28 2 23 2 24 6 4 2 -12 9 -20 14 -17z m-241 -325 c0
-5 6 -10 14 -10 8 0 18 -5 22 -12 5 -8 2 -9 -10 -5 -12 5 -16 3 -12 -5 3 -7 9
-21 12 -30 4 -10 13 -18 20 -18 8 0 14 -4 14 -10 0 -5 9 -10 20 -10 14 0 18 5
13 16 -4 12 -1 15 12 13 12 -3 19 -14 19 -31 l2 -28 -73 0 c-40 0 -73 3 -73 6
0 4 8 13 18 20 9 7 13 14 7 14 -5 0 -10 17 -9 38 0 20 -4 43 -9 50 -6 8 -6 12
2 12 6 0 11 -4 11 -10z m-135 -120 c-3 -5 -12 -10 -18 -10 -7 0 -6 4 3 10 19
12 23 12 15 0z m90 0 c3 -5 1 -10 -4 -10 -6 0 -11 5 -11 10 0 6 2 10 4 10 3 0
8 -4 11 -10z"/>
<path d="M1919 479 c-58 -9 -95 -28 -192 -100 -149 -111 -291 -156 -456 -146
-96 6 -101 6 -191 37 -74 25 -106 43 -205 116 -113 83 -147 97 -224 92 -36 -2
-83 -12 -103 -22 l-38 -18 0 -98 c0 -114 3 -119 101 -151 87 -28 139 -60 212
-129 34 -32 63 -54 65 -49 2 5 -10 37 -27 72 -17 35 -31 66 -31 68 0 12 92 -1
134 -20 219 -96 485 -96 678 0 20 10 61 21 91 23 l55 4 -34 -67 c-19 -36 -34
-72 -34 -79 0 -8 31 15 70 51 71 65 134 103 225 132 81 26 85 33 85 146 0 110
3 106 -85 131 -33 9 -66 12 -96 7z"/>
</g>
</svg>
